<svg fill="#000000" xmlns="http://www.w3.org/2000/svg"  viewBox="0 0 50 50" width="50px" height="50px"><path d="M 38 10.8125 L 37.09375 14.59375 L 35.1875 11.1875 L 35.28125 14.28125 C 33.109375 12.3125 30.246094 11.09375 27.09375 11.09375 C 21.988281 11.09375 17.746094 14.378906 15.96875 18.875 C 15.117188 18.382813 14.171875 18 13.09375 18 C 9.851563 18 7.1875 20.664063 7.1875 23.90625 C 7.1875 24.128906 7.285156 24.363281 7.3125 24.59375 C 3.316406 24.863281 0.09375 28.125 0.09375 32.1875 C 0.09375 32.984375 0.207031 33.710938 0.4375 34.40625 L 0.8125 34.28125 C 0.761719 34.511719 0.6875 34.8125 0.6875 34.8125 C 0.917969 35.042969 1.242188 35.148438 1.5625 35.09375 C 1.636719 35.089844 1.769531 35.097656 1.9375 35.09375 C 2.269531 35.089844 2.769531 35.066406 3.40625 35.0625 C 4.679688 35.054688 6.492188 35.039063 8.6875 35.03125 C 13.078125 35.015625 18.945313 35.007813 24.8125 35 C 36.550781 34.988281 48.3125 35 48.3125 35 C 48.703125 34.996094 49.058594 34.765625 49.21875 34.40625 C 49.65625 33.425781 50 32.292969 50 31.09375 C 50 28.3125 48.5 25.878906 46.28125 24.53125 L 48.59375 24.59375 L 45.1875 22.6875 L 49 21.8125 L 45.1875 20.90625 L 48.59375 19 L 44.6875 19 L 47.5 16.3125 L 43.8125 17.40625 L 45.8125 14.09375 L 42.5 16.09375 L 43.59375 12.40625 L 40.90625 15.1875 L 41 11.3125 L 39 14.59375 Z M 27.09375 13.09375 C 32.757813 13.09375 37.3125 17.648438 37.3125 23.3125 C 37.3125 23.640625 37.304688 23.933594 37.28125 24.21875 L 27.5 22.5 L 36.09375 25.6875 L 21 30.59375 L 37.875 27 L 37.90625 27 C 38.078125 27.011719 38.25 26.980469 38.40625 26.90625 L 38.4375 26.90625 L 43.90625 31.3125 L 39.96875 25.9375 C 40.660156 25.617188 41.445313 25.40625 42.3125 25.40625 C 45.472656 25.40625 48 27.933594 48 31.09375 C 48 31.703125 47.761719 32.363281 47.53125 33 C 46.789063 33 36.160156 32.988281 24.8125 33 C 18.945313 33.007813 13.082031 33.015625 8.6875 33.03125 C 6.492188 33.039063 4.652344 33.054688 3.375 33.0625 C 2.886719 33.066406 2.570313 33.089844 2.25 33.09375 C 2.195313 32.804688 2.09375 32.53125 2.09375 32.1875 C 2.09375 29.027344 4.652344 26.5 7.8125 26.5 L 8.5 26.5 C 8.835938 26.503906 9.148438 26.339844 9.335938 26.0625 C 9.523438 25.785156 9.5625 25.433594 9.4375 25.125 C 9.296875 24.773438 9.1875 24.273438 9.1875 23.90625 C 9.1875 21.75 10.9375 20 13.09375 20 C 14.136719 20 14.996094 20.394531 15.75 21.0625 C 16.011719 21.289063 16.371094 21.367188 16.703125 21.265625 C 17.03125 21.164063 17.289063 20.898438 17.375 20.5625 C 18.558594 16.285156 22.453125 13.09375 27.09375 13.09375 Z"/></svg>